<?xml version="1.0" standalone="no"?>
<!DOCTYPE svg PUBLIC "-//W3C//DTD SVG 20010904//EN"
 "http://www.w3.org/TR/2001/REC-SVG-20010904/DTD/svg10.dtd">
<svg version="1.0" xmlns="http://www.w3.org/2000/svg"
 width="300.000000pt" height="300.000000pt" viewBox="0 0 300.000000 300.000000"
 preserveAspectRatio="xMidYMid meet">
<g transform="translate(0.000000,300.000000) scale(0.100000,-0.100000)"
fill="#ffffff" stroke="none">
<path d="M2110 2838 c-242 -16 -449 -117 -591 -286 l-44 -53 -30 38 c-79 101
-194 186 -315 232 -123 48 -184 61 -320 67 -102 5 -132 4 -162 -9 -36 -15 -38
-18 -38 -63 0 -136 114 -364 239 -476 l50 -45 -52 -34 c-120 -77 -286 -270
-362 -419 -130 -256 -151 -601 -53 -870 69 -190 145 -309 288 -450 113 -113
207 -175 352 -236 148 -63 225 -78 398 -78 141 -1 165 2 260 28 221 61 359
138 505 282 239 237 355 527 343 861 -13 323 -161 621 -415 833 -48 41 -90 75
-92 76 -5 4 18 33 74 99 102 117 178 281 191 413 10 92 -19 104 -226 90z m183
-45 c16 -10 0 -100 -32 -183 -36 -92 -91 -188 -136 -239 -47 -52 -85 -111 -85
-131 0 -10 35 -49 77 -87 43 -37 88 -79 100 -93 13 -14 36 -38 52 -55 100
-105 205 -309 245 -476 87 -362 -18 -735 -283 -1013 -166 -172 -342 -264 -611
-317 -85 -17 -269 -10 -375 15 -154 36 -353 143 -479 257 -163 147 -300 397
-342 624 -26 139 -14 368 24 495 28 90 70 188 109 255 60 102 175 233 258 293
27 21 65 52 83 71 31 32 32 34 17 58 -9 13 -34 40 -55 60 -103 92 -210 304
-210 414 0 44 3 49 26 55 43 11 265 -3 329 -20 33 -9 83 -27 110 -40 28 -13
58 -26 68 -30 55 -18 201 -138 226 -184 17 -31 66 -55 89 -43 10 6 39 34 65
64 120 141 343 248 532 256 33 2 62 5 65 8 6 6 120 -6 133 -14z"/>
<path d="M774 2762 c-17 -2 -42 -14 -54 -27 l-23 -24 23 -73 c31 -98 60 -152
122 -224 56 -64 143 -134 167 -134 8 0 29 11 47 25 18 14 41 25 51 25 10 0 37
9 60 20 24 10 80 24 125 30 101 14 128 24 128 47 -1 65 -197 222 -350 281
-101 38 -224 61 -296 54z m196 -57 c136 -31 278 -112 373 -210 37 -38 67 -73
67 -76 0 -3 -33 -9 -73 -12 -85 -7 -258 -58 -294 -87 -28 -22 -27 -22 -100 33
-91 68 -166 184 -197 304 -9 34 -16 64 -16 68 0 11 164 -3 240 -20z"/>
<path d="M2000 2742 c-53 -4 -127 -29 -210 -70 -84 -42 -234 -179 -246 -225
-8 -33 10 -57 42 -57 57 0 232 -42 294 -71 67 -30 68 -31 101 -13 93 48 195
190 244 342 17 53 17 54 -6 78 -22 23 -29 25 -104 22 -44 -2 -96 -4 -115 -6z
m210 -35 c0 -28 -34 -125 -65 -187 -34 -66 -99 -139 -166 -186 -34 -24 -39
-24 -61 -11 -51 33 -204 79 -280 84 -52 4 -78 10 -78 18 0 15 151 161 207 198
48 33 157 73 234 86 88 14 209 13 209 -2z"/>
<path d="M1375 2328 c-331 -31 -657 -252 -804 -545 -47 -95 -78 -186 -109
-323 -10 -44 -5 -273 7 -340 19 -102 85 -292 114 -329 6 -7 16 -21 22 -31 37
-66 112 -164 160 -210 31 -30 70 -67 85 -82 16 -16 31 -28 35 -28 3 0 25 -13
48 -29 38 -26 140 -81 152 -82 2 0 20 -6 39 -14 67 -28 266 -65 349 -65 45 0
127 9 182 20 97 20 231 65 241 82 3 4 14 8 25 8 10 0 19 4 19 8 0 5 18 16 39
25 39 18 126 84 188 143 49 47 144 166 154 193 5 13 18 35 27 50 30 43 81 170
104 261 19 72 22 112 22 265 1 177 0 182 -33 285 -60 188 -128 300 -273 449
-181 184 -371 269 -658 294 -25 2 -85 0 -135 -5z m292 -49 c184 -37 349 -127
493 -270 142 -141 224 -287 276 -488 46 -180 28 -432 -44 -612 -67 -169 -122
-249 -256 -376 -132 -125 -325 -227 -472 -248 -22 -4 -46 -8 -55 -11 -9 -2
-65 -5 -125 -5 -199 -1 -414 65 -567 175 -196 139 -344 356 -402 591 -24 95
-28 131 -29 265 0 132 3 168 22 239 52 193 129 329 256 457 189 188 387 280
666 307 53 5 134 -3 237 -24z"/>
<path d="M1320 2245 c-101 -18 -157 -38 -270 -97 -169 -89 -313 -214 -377
-327 -15 -28 -33 -51 -39 -51 -6 0 -16 -18 -23 -40 -6 -22 -16 -40 -21 -40 -4
0 -11 -15 -15 -32 -9 -46 -28 -101 -37 -112 -4 -6 -8 -32 -8 -59 0 -51 20 -96
50 -115 45 -28 113 30 125 107 4 20 12 52 20 71 26 69 51 159 42 153 -13 -8
-72 -143 -86 -197 -12 -49 -47 -126 -57 -126 -19 0 -46 26 -59 57 -20 47 -19
79 5 131 10 23 22 59 26 80 3 20 16 48 29 62 12 14 43 59 70 100 118 182 356
350 568 400 50 12 139 25 196 28 l104 5 -7 -59 c-6 -54 -5 -57 9 -40 23 30 19
82 -7 100 -27 19 -128 20 -238 1z"/>
<path d="M1448 2119 c-15 -8 -18 -25 -18 -110 0 -116 8 -139 50 -139 49 0 63
33 57 140 -3 50 -10 97 -17 105 -14 17 -47 19 -72 4z m52 -55 c12 -32 13 -124
1 -143 -5 -8 -16 -11 -25 -8 -12 5 -16 21 -17 64 -1 32 -1 65 0 73 5 47 26 54
41 14z"/>
<path d="M1315 2094 c-27 -8 -75 -21 -105 -30 -64 -18 -156 -60 -165 -74 -3
-5 27 4 67 21 40 16 73 29 73 29 0 -1 7 1 15 4 8 2 52 12 98 22 86 18 142 44
92 43 -14 0 -47 -7 -75 -15z"/>
<path d="M1857 1970 c-13 -10 -34 -38 -47 -63 -56 -105 32 -151 100 -53 32 47
38 82 18 108 -21 25 -45 28 -71 8z m45 -71 c-13 -32 -48 -63 -62 -54 -16 10
-5 50 22 80 18 21 24 23 35 12 10 -10 11 -20 5 -38z"/>
<path d="M1037 1952 c-23 -26 -21 -41 12 -94 36 -56 63 -73 91 -58 35 19 40
42 19 90 -11 25 -27 53 -36 62 -21 23 -65 23 -86 0z m88 -64 c15 -29 17 -40 8
-49 -9 -9 -16 -9 -28 1 -23 19 -47 69 -39 81 11 19 39 4 59 -33z"/>
<path d="M930 1893 c-34 -31 -83 -84 -108 -117 -41 -53 -43 -58 -17 -39 17 11
68 62 115 113 47 50 87 94 89 96 2 2 -1 4 -7 4 -6 0 -38 -26 -72 -57z"/>
<path d="M797 1703 c-8 -10 -18 -30 -22 -44 -5 -21 1 -32 34 -62 63 -57 110
-61 133 -12 16 35 -1 67 -53 105 -48 34 -69 37 -92 13z m85 -50 c35 -33 37
-63 6 -63 -46 0 -100 69 -65 83 23 10 31 7 59 -20z"/>
<path d="M2072 1678 c-50 -37 -61 -68 -38 -103 27 -41 69 -31 139 33 31 30 35
62 9 85 -27 25 -62 20 -110 -15z m94 -13 c8 -19 -54 -75 -83 -75 -50 0 -38 42
21 70 50 23 55 24 62 5z"/>
<path d="M1745 1607 c-33 -35 -99 -99 -146 -144 l-87 -81 -34 11 c-35 12 -68
37 -148 111 -89 82 -110 96 -146 96 -27 0 -37 -5 -46 -25 -16 -35 -8 -47 106
-169 55 -59 107 -124 116 -144 24 -52 73 -92 115 -92 41 0 92 40 112 87 7 19
81 99 163 181 159 155 173 178 132 215 -37 33 -72 21 -137 -46z m99 27 c38
-15 15 -50 -120 -179 -75 -71 -142 -144 -150 -161 -19 -46 -68 -94 -96 -94
-32 1 -58 24 -111 105 -26 39 -81 104 -122 145 -74 74 -90 105 -60 116 19 8
56 -16 120 -77 112 -107 180 -142 230 -117 11 6 52 41 90 79 80 78 198 189
201 189 1 0 9 -3 18 -6z"/>
<path d="M627 1322 c-24 -26 -21 -68 5 -86 28 -20 191 -22 227 -3 39 20 45 54
16 83 -22 22 -31 24 -128 24 -88 0 -106 -3 -120 -18z m219 -27 c19 -15 19 -15
0 -30 -20 -15 -128 -21 -173 -9 -25 7 -31 39 -10 47 30 13 164 7 183 -8z"/>
<path d="M2096 1318 c-20 -28 -20 -47 0 -73 13 -18 27 -20 113 -20 83 0 102 3
120 19 25 23 27 44 5 74 -14 20 -23 22 -119 22 -96 0 -105 -2 -119 -22z m221
-24 c9 -28 -28 -44 -103 -44 -88 0 -118 16 -87 47 15 15 30 17 102 13 50 -3
86 -10 88 -16z"/>
<path d="M870 1003 c-8 -3 -36 -21 -62 -40 -38 -27 -48 -41 -48 -63 0 -33 23
-60 51 -60 22 0 105 52 127 78 18 23 15 36 -13 66 -25 27 -29 28 -55 19z m35
-61 c0 -18 -11 -30 -40 -45 -54 -29 -63 -30 -70 -7 -4 13 0 27 11 37 46 47 99
54 99 15z"/>
<path d="M2035 980 c-26 -29 -11 -66 43 -107 51 -39 85 -42 106 -11 23 33 20
51 -16 85 -61 57 -102 67 -133 33z m90 -30 c36 -22 48 -42 39 -65 -8 -21 -37
-19 -68 6 -72 57 -48 106 29 59z"/>
<path d="M1050 703 c-47 -75 -38 -133 20 -133 27 0 52 22 83 72 34 54 10 108
-46 108 -21 0 -33 -10 -57 -47z m87 6 c9 -9 7 -22 -9 -53 -23 -45 -34 -56 -59
-56 -35 0 -29 46 15 108 11 15 38 16 53 1z"/>
<path d="M1818 739 c-48 -28 -40 -78 25 -146 35 -37 57 -41 80 -15 32 36 14
98 -43 146 -35 29 -38 30 -62 15z m54 -44 c29 -27 45 -66 33 -84 -13 -21 -35
-10 -64 32 -22 32 -27 47 -20 60 13 23 19 22 51 -8z"/>
<path d="M1442 657 c-19 -20 -22 -35 -22 -115 0 -80 3 -95 21 -113 15 -15 28
-19 47 -14 46 11 52 29 48 134 -2 53 -4 97 -5 98 -1 3 -59 33 -64 33 -2 0 -13
-10 -25 -23z m62 -35 c4 -15 9 -116 7 -149 -1 -7 -11 -18 -23 -24 -18 -10 -24
-8 -35 7 -18 25 -15 146 4 174 15 21 40 17 47 -8z"/>
<path d="M1525 410 c-3 -5 -20 -14 -38 -19 l-32 -9 28 -1 c32 -1 67 15 67 29
0 13 -17 13 -25 0z"/>
</g>
</svg>
